<?xml version="1.0" encoding="UTF-8" standalone="no"?>
<!-- Created with Inkscape (http://www.inkscape.org/) -->

<svg
   width="32"
   height="32"
   viewBox="0 0 0.33333333 0.33333333"
   version="1.1"
   id="svg1630"
   inkscape:version="1.2.2 (b0a84865, 2022-12-01)"
   sodipodi:docname="gitlab_avatar.svg"
   xmlns:inkscape="http://www.inkscape.org/namespaces/inkscape"
   xmlns:sodipodi="http://sodipodi.sourceforge.net/DTD/sodipodi-0.dtd"
   xmlns="http://www.w3.org/2000/svg"
   xmlns:svg="http://www.w3.org/2000/svg">
  <sodipodi:namedview
     id="namedview1632"
     pagecolor="#ffffff"
     bordercolor="#000000"
     borderopacity="0.25"
     inkscape:showpageshadow="2"
     inkscape:pageopacity="0.0"
     inkscape:pagecheckerboard="0"
     inkscape:deskcolor="#d1d1d1"
     inkscape:document-units="in"
     showgrid="false"
     inkscape:zoom="17.125001"
     inkscape:cx="28.992699"
     inkscape:cy="10.218978"
     inkscape:window-width="2560"
     inkscape:window-height="1302"
     inkscape:window-x="2560"
     inkscape:window-y="25"
     inkscape:window-maximized="0"
     inkscape:current-layer="layer1" />
  <defs
     id="defs1627" />
  <g
     inkscape:label="Layer 1"
     inkscape:groupmode="layer"
     id="layer1">
    <rect
       style="fill:#ffffff;stroke-width:0.000783981;fill-opacity:1"
       id="rect16036"
       width="0.33333334"
       height="0.33333334"
       x="0"
       y="0" />
    <g
       id="LOGO"
       transform="matrix(0.00130172,0,0,0.00130172,-0.08066014,-0.08067311)">
      <path
         class="cls-1"
         d="m 282.83,170.73 -0.27,-0.69 -26.14,-68.22 a 6.81,6.81 0 0 0 -2.69,-3.24 7,7 0 0 0 -8,0.43 7,7 0 0 0 -2.32,3.52 l -17.65,54 h -71.47 l -17.65,-54 a 6.86,6.86 0 0 0 -2.32,-3.53 7,7 0 0 0 -8,-0.43 6.87,6.87 0 0 0 -2.69,3.24 L 97.44,170 l -0.26,0.69 a 48.54,48.54 0 0 0 16.1,56.1 l 0.09,0.07 0.24,0.17 39.82,29.82 19.7,14.91 12,9.06 a 8.07,8.07 0 0 0 9.76,0 l 12,-9.06 19.7,-14.91 40.06,-30 0.1,-0.08 a 48.56,48.56 0 0 0 16.08,-56.04 z"
         id="path695"
         style="fill:#e24329" />
      <path
         class="cls-2"
         d="m 282.83,170.73 -0.27,-0.69 a 88.3,88.3 0 0 0 -35.15,15.8 L 190,229.25 c 19.55,14.79 36.57,27.64 36.57,27.64 l 40.06,-30 0.1,-0.08 a 48.56,48.56 0 0 0 16.1,-56.08 z"
         id="path697"
         style="fill:#fc6d26" />
      <path
         class="cls-3"
         d="m 153.43,256.89 19.7,14.91 12,9.06 a 8.07,8.07 0 0 0 9.76,0 l 12,-9.06 19.7,-14.91 c 0,0 -17.04,-12.89 -36.59,-27.64 -19.55,14.75 -36.57,27.64 -36.57,27.64 z"
         id="path699"
         style="fill:#fca326" />
      <path
         class="cls-2"
         d="M 132.58,185.84 A 88.19,88.19 0 0 0 97.44,170 l -0.26,0.69 a 48.54,48.54 0 0 0 16.1,56.1 l 0.09,0.07 0.24,0.17 39.82,29.82 c 0,0 17,-12.85 36.57,-27.64 z"
         id="path701"
         style="fill:#fc6d26" />
    </g>
  </g>
</svg>
