<?xml version="1.0" encoding="UTF-8" standalone="no"?>
<svg
   width="32"
   height="32"
   viewBox="0 0 32 32"
   fill="none"
   version="1.1"
   id="svg22"
   sodipodi:docname="jira_avatar.svg"
   inkscape:version="1.2.2 (b0a84865, 2022-12-01)"
   xmlns:inkscape="http://www.inkscape.org/namespaces/inkscape"
   xmlns:sodipodi="http://sodipodi.sourceforge.net/DTD/sodipodi-0.dtd"
   xmlns="http://www.w3.org/2000/svg"
   xmlns:svg="http://www.w3.org/2000/svg">
  <sodipodi:namedview
     id="namedview24"
     pagecolor="#ffffff"
     bordercolor="#000000"
     borderopacity="0.25"
     inkscape:showpageshadow="2"
     inkscape:pageopacity="0.0"
     inkscape:pagecheckerboard="0"
     inkscape:deskcolor="#d1d1d1"
     showgrid="false"
     inkscape:zoom="11.346854"
     inkscape:cx="12.999198"
     inkscape:cy="14.453345"
     inkscape:window-width="2560"
     inkscape:window-height="1302"
     inkscape:window-x="2560"
     inkscape:window-y="25"
     inkscape:window-maximized="0"
     inkscape:current-layer="svg22" />
  <rect
     style="opacity:1;fill:#0052cc;fill-opacity:1;stroke-width:0.941893"
     id="rect332"
     width="32"
     height="32"
     x="0"
     y="-1.3125472e-07" />
  <path
     d="M23.7199 7.64001H15.6399C15.6399 9.64001 17.2799 11.28 19.2799 11.28H20.7599V12.72C20.7599 14.72 22.3999 16.36 24.3999 16.36V8.32001C24.4399 7.96001 24.1199 7.64001 23.7199 7.64001Z"
     fill="white"
     id="path4" />
  <path
     d="M19.7199 11.64H11.6399C11.6399 13.64 13.2799 15.28 15.2799 15.28H16.7599V16.72C16.7599 18.72 18.3999 20.36 20.3999 20.36V12.36C20.4399 11.96 20.1199 11.64 19.7199 11.64Z"
     fill="url(#paint0_linear)"
     id="path6" />
  <path
     d="M15.7199 15.6801H7.63989C7.63989 17.6801 9.27988 19.3201 11.2799 19.3201H12.7599V20.7601C12.7599 22.7601 14.3999 24.4001 16.3999 24.4001V16.4001C16.4399 16.0001 16.1199 15.6801 15.7199 15.6801Z"
     fill="url(#paint1_linear)"
     id="path8" />
  <defs
     id="defs20">
    <linearGradient
       id="paint0_linear"
       x1="20.2597"
       y1="11.6708"
       x2="16.8183"
       y2="15.2196"
       gradientUnits="userSpaceOnUse">
      <stop
         offset="0.176"
         stop-color="white"
         stop-opacity="0.4"
         id="stop10" />
      <stop
         offset="1"
         stop-color="white"
         id="stop12" />
    </linearGradient>
    <linearGradient
       id="paint1_linear"
       x1="16.4844"
       y1="15.7246"
       x2="12.5054"
       y2="19.596"
       gradientUnits="userSpaceOnUse">
      <stop
         offset="0.176"
         stop-color="white"
         stop-opacity="0.4"
         id="stop15" />
      <stop
         offset="1"
         stop-color="white"
         id="stop17" />
    </linearGradient>
  </defs>
</svg>
