<?xml version="1.0" encoding="UTF-8" standalone="no"?>
<!-- Created with Inkscape (http://www.inkscape.org/) -->

<svg
   width="32"
   height="32"
   viewBox="0 0 0.33333333 0.33333333"
   version="1.1"
   id="svg1630"
   inkscape:version="1.2.2 (b0a84865, 2022-12-01)"
   sodipodi:docname="webhooks_avatar.svg"
   xmlns:inkscape="http://www.inkscape.org/namespaces/inkscape"
   xmlns:sodipodi="http://sodipodi.sourceforge.net/DTD/sodipodi-0.dtd"
   xmlns="http://www.w3.org/2000/svg"
   xmlns:svg="http://www.w3.org/2000/svg">
  <sodipodi:namedview
     id="namedview1632"
     pagecolor="#ffffff"
     bordercolor="#000000"
     borderopacity="0.25"
     inkscape:showpageshadow="2"
     inkscape:pageopacity="0.0"
     inkscape:pagecheckerboard="0"
     inkscape:deskcolor="#d1d1d1"
     inkscape:document-units="in"
     showgrid="false"
     inkscape:zoom="6.0546022"
     inkscape:cx="90.096753"
     inkscape:cy="-17.011853"
     inkscape:window-width="2560"
     inkscape:window-height="1302"
     inkscape:window-x="2560"
     inkscape:window-y="25"
     inkscape:window-maximized="0"
     inkscape:current-layer="layer1" />
  <defs
     id="defs1627" />
  <g
     inkscape:label="Layer 1"
     inkscape:groupmode="layer"
     id="layer1">
    <rect
       style="fill:#ffffff;stroke-width:0.000783981;fill-opacity:1"
       id="rect16036"
       width="0.33333334"
       height="0.33333334"
       x="0"
       y="0" />
    <g
       id="g346"
       transform="matrix(0.015625,0,0,0.015625,-2.4512961,-2.5012285)">
      <g
         id="OvHZFw.tif"
         transform="matrix(0.12401029,0,0,0.12401029,159.54955,163.29764)">
        <g
           id="g325">
          <path
             fill-rule="evenodd"
             clip-rule="evenodd"
             fill="#231f20"
             d="m 60.467,50.345 c -5.367,9.022 -10.509,17.759 -15.758,26.43 -1.348,2.226 -2.015,4.039 -0.938,6.869 2.973,7.817 -1.221,15.424 -9.104,17.489 C 27.233,103.081 19.99,98.195 18.515,90.236 17.208,83.191 22.675,76.285 30.442,75.184 31.093,75.091 31.757,75.08 32.851,74.998 36.657,68.616 40.556,62.079 44.666,55.186 37.235,47.797 32.812,39.159 33.791,28.456 34.483,20.89 37.458,14.352 42.896,8.993 53.311,-1.269 69.2,-2.931 81.463,4.946 93.241,12.512 98.635,27.25 94.037,39.864 90.57,38.924 87.079,37.976 83.241,36.935 84.685,29.922 83.617,23.624 78.887,18.229 75.762,14.667 71.752,12.8 67.192,12.112 58.051,10.731 49.076,16.604 46.413,25.576 43.39,35.759 47.965,44.077 60.467,50.345 Z"
             id="path319" />
          <path
             fill-rule="evenodd"
             clip-rule="evenodd"
             fill="#231f20"
             d="m 75.794,39.676 c 3.781,6.67 7.62,13.441 11.425,20.15 19.232,-5.95 33.732,4.696 38.934,16.094 6.283,13.768 1.988,30.075 -10.352,38.569 -12.666,8.72 -28.684,7.23 -39.906,-3.971 2.86,-2.394 5.734,-4.799 8.805,-7.368 11.084,7.179 20.778,6.841 27.975,-1.66 6.137,-7.252 6.004,-18.065 -0.311,-25.165 -7.288,-8.193 -17.05,-8.443 -28.85,-0.578 -4.895,-8.684 -9.875,-17.299 -14.615,-26.046 -1.598,-2.948 -3.363,-4.658 -6.965,-5.282 -6.016,-1.043 -9.9,-6.209 -10.133,-11.997 -0.229,-5.724 3.143,-10.898 8.414,-12.914 5.221,-1.997 11.348,-0.385 14.86,4.054 2.87,3.627 3.782,7.709 2.272,12.182 -0.42,1.247 -0.964,2.454 -1.553,3.932 z"
             id="path321" />
          <path
             fill-rule="evenodd"
             clip-rule="evenodd"
             fill="#231f20"
             d="m 84.831,94.204 c -7.605,0 -15.238,0 -23.152,0 -2.219,9.127 -7.012,16.496 -15.271,21.182 -6.42,3.642 -13.34,4.877 -20.705,3.688 C 12.143,116.887 1.055,104.68 0.079,90.934 -1.026,75.363 9.677,61.522 23.943,58.413 c 0.985,3.577 1.98,7.188 2.965,10.756 -13.089,6.678 -17.619,15.092 -13.956,25.613 3.225,9.259 12.385,14.334 22.331,12.371 10.157,-2.004 15.278,-10.445 14.653,-23.992 9.629,0 19.266,-0.1 28.896,0.049 3.76,0.059 6.663,-0.331 9.496,-3.646 4.664,-5.455 13.248,-4.963 18.271,0.189 5.133,5.265 4.887,13.737 -0.545,18.78 -5.241,4.866 -13.521,4.606 -18.424,-0.637 -1.008,-1.081 -1.802,-2.364 -2.799,-3.692 z"
             id="path323" />
        </g>
      </g>
    </g>
  </g>
</svg>
